<svg xmlns="http://www.w3.org/2000/svg" xmlns:xlink="http://www.w3.org/1999/xlink" version="1.0" x="0" y="0" width="2400" height="575.6571630742665" viewBox="35.905392456054685 92.83645324707031 268.1892150878906 64.32710113525391" preserveAspectRatio="xMidYMid meet" color-interpolation-filters="sRGB"><g><defs><linearGradient id="92" x1="0%" y1="0%" x2="100%" y2="0%"><stop offset="0%" stop-color="#fa71cd"></stop> <stop offset="100%" stop-color="#9b59b6"></stop></linearGradient><linearGradient id="93" x1="0%" y1="0%" x2="100%" y2="0%"><stop offset="0%" stop-color="#f9d423"></stop> <stop offset="100%" stop-color="#f83600"></stop></linearGradient><linearGradient id="94" x1="0%" y1="0%" x2="100%" y2="0%"><stop offset="0%" stop-color="#0064d2"></stop> <stop offset="100%" stop-color="#1cb0f6"></stop></linearGradient><linearGradient id="95" x1="0%" y1="0%" x2="100%" y2="0%"><stop offset="0%" stop-color="#f00978"></stop> <stop offset="100%" stop-color="#3f51b1"></stop></linearGradient><linearGradient id="96" x1="0%" y1="0%" x2="100%" y2="0%"><stop offset="0%" stop-color="#7873f5"></stop> <stop offset="100%" stop-color="#ec77ab"></stop></linearGradient><linearGradient id="97" x1="0%" y1="0%" x2="100%" y2="0%"><stop offset="0%" stop-color="#f9d423"></stop> <stop offset="100%" stop-color="#e14fad"></stop></linearGradient><linearGradient id="98" x1="0%" y1="0%" x2="100%" y2="0%"><stop offset="0%" stop-color="#009efd"></stop> <stop offset="100%" stop-color="#2af598"></stop></linearGradient><linearGradient id="99" x1="0%" y1="0%" x2="100%" y2="0%"><stop offset="0%" stop-color="#ffcc00"></stop> <stop offset="100%" stop-color="#00b140"></stop></linearGradient><linearGradient id="100" x1="0%" y1="0%" x2="100%" y2="0%"><stop offset="0%" stop-color="#d51007"></stop> <stop offset="100%" stop-color="#ff8177"></stop></linearGradient><linearGradient id="102" x1="0%" y1="0%" x2="100%" y2="0%"><stop offset="0%" stop-color="#a2b6df"></stop> <stop offset="100%" stop-color="#0c3483"></stop></linearGradient><linearGradient id="103" x1="0%" y1="0%" x2="100%" y2="0%"><stop offset="0%" stop-color="#7ac5d8"></stop> <stop offset="100%" stop-color="#eea2a2"></stop></linearGradient><linearGradient id="104" x1="0%" y1="0%" x2="100%" y2="0%"><stop offset="0%" stop-color="#00ecbc"></stop> <stop offset="100%" stop-color="#007adf"></stop></linearGradient><linearGradient id="105" x1="0%" y1="0%" x2="100%" y2="0%"><stop offset="0%" stop-color="#b88746"></stop> <stop offset="100%" stop-color="#fdf5a6"></stop></linearGradient></defs><g fill="#333" class="icon-text-wrapper icon-svg-group iconsvg" transform="translate(38.534698486328125,95.46575546264648)"><g class="iconsvg-imagesvg" transform="translate(0,0)"><g><rect fill="#333" fill-opacity="0" stroke-width="2" x="0" y="0" width="60" height="59.06848991405534" class="image-rect"></rect> <svg x="0" y="0" width="60" height="59.06848991405534" filtersec="colorsb3683116282" class="image-svg-svg primary" style="overflow: visible;"><svg xmlns="http://www.w3.org/2000/svg" viewBox="0.43845731019973755 -0.00000958778036874719 101.56156158447266 99.98497772216797"><path d="M69.3 59.41l-9.89 9.89L51 77.73 30.46 98.26A6 6 0 0 1 22 89.83L42.56 69.3 51 60.88l9.9-9.9zM102 24.28a6 6 0 0 1-1.75 4.21L77.72 51l-8.42-8.44 22.5-22.5a6 6 0 0 1 10.2 4.22z" fill="#0059cc"></path><path d="M83.64 6a5.94 5.94 0 0 1-1.74 4.21L41.08 51l-8.42-8.42 9.9-9.89L51 24.24 73.48 1.75A6 6 0 0 1 83.64 6zM32.66 59.41L12.13 79.93a6 6 0 0 1-8.42-8.42L24.24 51z" fill="#00dac7"></path><path d="M51 24.24l-8.42 8.43-22.5-22.5A6 6 0 0 1 24.28 0a5.89 5.89 0 0 1 4.2 1.75zM98.25 79.93a5.94 5.94 0 0 1-8.42 0L51 41.09l8.42-8.42 9.9 9.89 8.4 8.44 20.53 20.51a6 6 0 0 1 0 8.42z" fill="#00baec"></path><path d="M51 60.88l-8.44 8.42L1.74 28.49a6 6 0 0 1 8.43-8.43l22.49 22.5L41.08 51zM79.93 98.26a6 6 0 0 1-8.42 0L51 77.73l8.42-8.43 20.51 20.53a6 6 0 0 1 0 8.43z" fill="#00abd8"></path></svg></svg> </g></g> <g transform="translate(74,8.196243286132812)"><g fill-rule="" class="tp-name iconsvg-namesvg"><g transform="scale(0.94)"><g><path d="M3.13-16.97L3.13-26.78Q3.13-30.68 4.97-33.93 6.8-37.18 9.69-39.55 12.59-41.91 16.23-43.24 19.86-44.57 23.47-44.57L23.47-44.57Q27.78-44.57 31.21-43.06 34.64-41.56 37.15-39.01 39.67-36.47 41.23-33.1 42.8-29.73 43.42-26.07 44.04-22.4 43.63-18.65 43.21-14.9 41.79-11.53 40.37-8.16 37.89-5.41 35.41-2.66 31.86-1L31.86-1Q29.79 0 27.64 0.41 25.48 0.83 23.23 0.83L23.23 0.83Q19.68 0.83 16.08-0.53 12.47-1.89 9.61-4.29 6.74-6.68 4.94-9.93 3.13-13.18 3.13-16.97L3.13-16.97ZM33.87-15.37L33.87-28.37Q33.87-30.68 33.22-33.25 32.57-35.82 31.27-37.98 29.97-40.14 27.96-41.56 25.95-42.98 23.23-42.98L23.23-42.98Q20.75-42.98 19-41.91 17.26-40.85 16.08-39.1 14.9-37.36 14.22-35.11 13.54-32.87 13.15-30.53 12.77-28.2 12.68-25.92 12.59-23.65 12.59-21.87L12.59-21.87Q12.59-19.98 12.71-17.65 12.83-15.31 13.21-12.95 13.6-10.58 14.28-8.42 14.96-6.27 16.08-4.67L16.08-4.67Q17.44-2.78 19.12-1.77 20.81-0.77 23.23-0.77L23.23-0.77Q25.95-0.77 27.93-2.19 29.91-3.61 31.24-5.79 32.57-7.98 33.22-10.52 33.87-13.06 33.87-15.37L33.87-15.37ZM66.44-0.41L51.72-41.38Q51.13-41.97 50.01-42.03 48.89-42.09 48.12-42.44L48.12-42.44Q47.76-42.62 47.73-42.98 47.7-43.33 48.18-43.33L48.18-43.33 67.15-43.33Q67.51-43.33 67.51-42.98L67.51-42.98Q67.51-42.56 67.15-42.5L67.15-42.5Q65.97-42.09 64.64-42.09 63.31-42.09 62.07-41.79L62.07-41.79Q61.71-41.73 61.54-41.32L61.54-41.32Q61.42-40.91 61.83-39.99 62.25-39.07 62.36-38.6L62.36-38.6 67.74-23.29Q69.58-18.03 70.94-12.95L70.94-12.95Q71-12.65 71.17-11.88 71.35-11.11 71.56-10.32 71.76-9.52 71.91-8.87 72.06-8.22 72.18-8.04L72.18-8.04Q72.3-7.92 72.38-7.77 72.47-7.63 72.59-7.51L72.59-7.51Q73-6.86 72.98-5.91 72.95-4.97 72.71-3.96 72.47-2.96 72.09-1.98 71.7-1 71.41-0.41L71.41-0.41Q71.29-0.18 71.23-0.09 71.17 0 70.88 0L70.88 0 66.98 0Q66.68 0 66.62-0.09 66.56-0.18 66.44-0.41L66.44-0.41ZM85.18-41.26L75.19-11.7Q75.01-11.23 74.72-10.91 74.42-10.58 74.19-10.52 73.95-10.46 73.83-10.7 73.71-10.94 73.83-11.47L73.83-11.47Q74.19-12.95 74.6-14.36 75.01-15.78 75.49-17.26L75.49-17.26Q76.67-21.16 77.79-25.06 78.92-28.97 80.16-32.87L80.16-32.87Q80.39-33.58 80.78-34.73 81.16-35.88 81.55-37.09 81.93-38.31 82.2-39.43 82.46-40.55 82.46-41.2L82.46-41.2Q82.46-41.56 82.32-41.65 82.17-41.73 81.87-41.79L81.87-41.79Q80.63-42.03 79.36-42.06 78.09-42.09 76.91-42.5L76.91-42.5Q76.49-42.62 76.49-42.98 76.49-43.33 76.97-43.33L76.97-43.33 89.62-43.33Q90.03-43.33 90-42.95 89.97-42.56 89.62-42.44L89.62-42.44Q89.32-42.33 88.61-42.24 87.9-42.15 87.19-42.06 86.48-41.97 85.89-41.79 85.3-41.62 85.18-41.26L85.18-41.26ZM113.2-0.41L93.99-0.41Q93.75-0.41 93.58-0.5 93.4-0.59 93.58-0.89L93.58-0.89Q93.81-1.3 94.4-1.54 95-1.77 95.67-1.86 96.35-1.95 97.03-1.95 97.71-1.95 98.19-1.95L98.19-1.95Q98.84-1.95 98.84-2.6L98.84-2.6 98.84-41.2Q98.84-41.79 98.25-41.85L98.25-41.85Q97.83-41.91 97.24-41.94 96.65-41.97 96.06-42.03 95.47-42.09 94.91-42.18 94.34-42.27 93.99-42.44L93.99-42.44Q93.69-42.56 93.69-42.95 93.69-43.33 94.17-43.33L94.17-43.33 113.08-43.33Q113.5-43.33 113.47-42.95 113.44-42.56 113.14-42.44L113.14-42.44Q112.2-42.03 111.07-42 109.95-41.97 108.95-41.79L108.95-41.79Q108.3-41.67 108.3-41.14L108.3-41.14 108.3-2.9Q108.3-2.66 108.53-2.31L108.53-2.31Q108.71-1.95 109.06-1.95L109.06-1.95Q109.48-1.95 110.16-1.95 110.84-1.95 111.52-1.86 112.2-1.77 112.79-1.54 113.38-1.3 113.62-0.89L113.62-0.89Q113.79-0.59 113.62-0.5 113.44-0.41 113.2-0.41L113.2-0.41ZM125.67-38.19L125.62-38.19Q125.38-37.89 125.41-37.03 125.44-36.18 125.59-35.2 125.73-34.23 125.88-33.31 126.03-32.39 126.03-31.92L126.03-31.92 126.03-3.07Q126.03-2.78 126.27-2.6 126.5-2.42 126.74-2.36L126.74-2.36Q127.03-2.25 127.3-2.28 127.57-2.31 127.86-2.25L127.86-2.25Q128.22-2.19 129.13-2.1 130.05-2.01 131.05-1.86 132.06-1.71 132.89-1.57 133.71-1.42 133.95-1.3L133.95-1.3Q134.25-1.12 134.33-0.77 134.42-0.41 133.89-0.41L133.89-0.41 119.17-0.41Q118.52-0.41 118.7-0.95L118.7-0.95Q118.82-1.54 119.41-1.77 120-2.01 120.71-2.1 121.42-2.19 122.16-2.19 122.9-2.19 123.31-2.31L123.31-2.31Q123.84-2.36 123.84-2.9L123.84-2.9Q123.84-7.98 124.02-13.12L124.02-13.12Q124.08-14.31 124.14-15.55 124.2-16.79 124.2-17.97L124.2-17.97 124.2-29.91Q124.2-31.57 124.23-33.19 124.26-34.82 124.26-36.47L124.26-36.47Q124.26-37.18 124.32-37.95 124.37-38.72 124.26-39.43L124.26-39.43Q124.2-40.2 123.84-40.67 123.49-41.14 122.99-41.41 122.48-41.67 121.86-41.85 121.24-42.03 120.65-42.15L120.65-42.15Q120.53-42.21 120.06-42.3 119.59-42.38 119.47-42.44L119.47-42.44Q119.17-42.62 119.11-42.98 119.05-43.33 119.53-43.33L119.53-43.33 132.3-43.33Q132.53-43.33 132.86-43.03 133.18-42.74 133.48-42.33 133.77-41.91 134.07-41.53 134.36-41.14 134.48-40.97L134.48-40.97Q138.86-34.94 143.2-29 147.55-23.05 151.8-16.97L151.8-16.97Q152.33-16.14 152.66-15.28 152.99-14.42 153.46-13.6L153.46-13.6Q153.69-13.18 154.32-12.68 154.94-12.18 155.59-11.67 156.24-11.17 156.71-10.64 157.18-10.11 157.18-9.58L157.18-9.58 156.95-0.59Q156.95-0.24 156.8-0.15 156.65-0.06 156.35-0.06L156.35-0.06Q156.18-0.06 155.62-0.09 155.05-0.12 154.4-0.18 153.75-0.24 153.22-0.3 152.69-0.35 152.63-0.41L152.63-0.41Q152.22-0.59 152.04-0.89 151.86-1.18 151.57-1.54L151.57-1.54Q146.72-8.33 141.99-15.1 137.26-21.87 132.47-28.73L132.47-28.73Q131.47-30.21 130.49-31.66 129.52-33.1 128.51-34.58L128.51-34.58Q128.04-35.29 127.63-36.03 127.21-36.77 126.62-37.42L126.62-37.42Q126.44-37.66 126.21-37.89 125.97-38.13 125.67-38.19L125.67-38.19ZM157.71-41.38L157.18-14.07Q157.3-13.71 157.09-13.51 156.89-13.3 156.62-13.3 156.35-13.3 156.09-13.54 155.82-13.77 155.88-14.25L155.88-14.25Q155.88-14.78 155.82-15.07L155.82-15.07Q155.7-15.84 155.76-16.61 155.82-17.38 155.76-18.15L155.76-18.15Q155.65-22.11 155.62-26.01 155.59-29.91 155.47-33.87L155.47-33.87Q155.47-34.46 155.41-35.05 155.35-35.65 155.35-36.24L155.35-36.24Q155.35-37.42 155.41-38.6 155.47-39.78 155.35-40.97L155.35-40.97Q155.29-41.32 154.37-41.56 153.46-41.79 152.31-41.94 151.15-42.09 150.09-42.15 149.02-42.21 148.67-42.21L148.67-42.21Q148.55-42.21 148.02-42.27 147.49-42.33 147.49-42.56L147.49-42.56Q147.49-42.86 147.49-43.09 147.49-43.33 147.9-43.33L147.9-43.33 162.62-43.33Q163.15-43.33 163.09-42.8L163.09-42.8Q162.98-42.33 162.15-42.21 161.32-42.09 160.32-42.09 159.31-42.09 158.51-41.97 157.71-41.85 157.71-41.38L157.71-41.38ZM203.76-41.79L203.76-32.1Q203.76-31.51 203.17-31.51L203.17-31.51 201.4-31.51Q201.1-31.51 201.04-31.6 200.99-31.68 200.87-31.92L200.87-31.92Q200.57-32.69 200.19-34.23 199.8-35.76 199.36-37.39 198.92-39.01 198.5-40.4 198.09-41.79 197.73-42.27L197.73-42.27Q197.32-42.86 196.67-42.98L196.67-42.98Q195.84-43.09 195.07-43.03 194.31-42.98 193.48-42.98L193.48-42.98Q189.81-42.98 187.15-41.65 184.49-40.32 182.69-38.07 180.89-35.82 179.85-32.87 178.82-29.91 178.43-26.75 178.05-23.59 178.17-20.39 178.29-17.2 178.82-14.42L178.82-14.42Q179.35-11.53 180.5-9.01 181.66-6.5 183.46-4.67 185.26-2.84 187.71-1.8 190.17-0.77 193.3-0.77L193.3-0.77Q194.54-0.77 195.67-0.74 196.79-0.71 197.85-1.48L197.85-1.48Q198.27-1.77 198.74-3.16 199.21-4.55 199.71-6.27 200.22-7.98 200.63-9.58 201.04-11.17 201.28-11.82L201.28-11.82Q201.4-12.06 201.46-12.15 201.52-12.24 201.81-12.24L201.81-12.24 203.53-12.24Q204.12-12.24 204.12-11.65L204.12-11.65 204.12-2.36Q204.12-1.89 203.29-1.48 202.46-1.06 201.19-0.71 199.92-0.35 198.41-0.06 196.91 0.24 195.49 0.41 194.07 0.59 192.95 0.71 191.82 0.83 191.35 0.83L191.35 0.83Q186.21 0.83 182.01-0.77 177.81-2.36 174.83-5.35 171.84-8.33 170.25-12.53 168.65-16.73 168.65-21.87L168.65-21.87Q168.65-27.07 170.33-31.27 172.02-35.47 175.06-38.42 178.11-41.38 182.36-42.98 186.62-44.57 191.76-44.57L191.76-44.57Q192.41-44.57 194.36-44.36 196.32-44.16 198.41-43.77 200.51-43.39 202.14-42.89 203.76-42.38 203.76-41.79L203.76-41.79Z" transform="translate(-3.130000114440918, 44.56999969482422)"></path></g> </g></g> </g></g><defs v-gra="od"></defs></g></svg>
